<?xml version="1.0" encoding="UTF-8" standalone="no"?>
<!-- Created with Inkscape (http://www.inkscape.org/) -->

<svg
   xmlns:dc="http://purl.org/dc/elements/1.1/"
   xmlns:cc="http://creativecommons.org/ns#"
   xmlns:rdf="http://www.w3.org/1999/02/22-rdf-syntax-ns#"
   xmlns:svg="http://www.w3.org/2000/svg"
   xmlns="http://www.w3.org/2000/svg"
   xmlns:sodipodi="http://sodipodi.sourceforge.net/DTD/sodipodi-0.dtd"
   xmlns:inkscape="http://www.inkscape.org/namespaces/inkscape"
   width="9.3000002mm"
   height="9.3000002mm"
   viewBox="0 0 32.952757 32.952756"
   id="svg2"
   version="1.1"
   inkscape:version="0.91 r13725"
   sodipodi:docname="digital-poriborton.svg">
  <defs
     id="defs4" />
  <sodipodi:namedview
     id="base"
     pagecolor="#ffffff"
     bordercolor="#666666"
     borderopacity="1.0"
     inkscape:pageopacity="0.0"
     inkscape:pageshadow="2"
     inkscape:zoom="7.9195959"
     inkscape:cx="27.603566"
     inkscape:cy="22.928668"
     inkscape:document-units="mm"
     inkscape:current-layer="layer1"
     showgrid="false"
     inkscape:window-width="1366"
     inkscape:window-height="706"
     inkscape:window-x="-8"
     inkscape:window-y="-8"
     inkscape:window-maximized="1"
     inkscape:snap-text-baseline="true" />
  <metadata
     id="metadata7">
    <rdf:RDF>
      <cc:Work
         rdf:about="">
        <dc:format>image/svg+xml</dc:format>
        <dc:type
           rdf:resource="http://purl.org/dc/dcmitype/StillImage" />
        <dc:title></dc:title>
      </cc:Work>
    </rdf:RDF>
  </metadata>
  <g
     inkscape:groupmode="layer"
     id="layer2"
     inkscape:label="Layer 2" />
  <g
     inkscape:label="Layer 1"
     inkscape:groupmode="layer"
     id="layer1"
     transform="translate(0,-1019.4096)">
    <rect
       style="fill:#ffffff;opacity:0"
       id="rect4158"
       width="33.082497"
       height="23.486046"
       x="9.1574259e-007"
       y="1019.5323" />
    <path
       sodipodi:type="spiral"
       style="fill:#e3dedb;fill-rule:evenodd;stroke:#000000;stroke-width:1px;stroke-linecap:butt;stroke-linejoin:miter;stroke-opacity:1"
       id="path4160"
       sodipodi:cx="15.278559"
       sodipodi:cy="1033.9271"
       sodipodi:expansion="1"
       sodipodi:revolution="3"
       sodipodi:radius="16.336115"
       sodipodi:argument="-17.787359"
       sodipodi:t0="0"
       d="m 15.278559,1033.9271 c 0.398848,0.7154 -0.767561,0.8906 -1.189034,0.6629 -1.142167,-0.617 -0.89454,-2.2341 -0.136791,-3.0409 1.355435,-1.4433 3.68344,-0.9961 4.892927,0.3893 1.77497,2.0331 1.106637,5.1546 -0.915453,6.7449 -2.69513,2.1196 -6.633748,1.2214 -8.5968194,-1.4416 -2.4703255,-3.3511 -1.3383924,-8.1168 1.9676964,-10.4488 4.004118,-2.8243 9.602094,-1.4567 12.300712,2.4938 3.180227,4.6556 1.575847,11.0888 -3.019941,14.1527 -5.306018,3.5374 -12.5763299,1.6955 -16.0046035,-3.5461 -3.89542237,-5.9558 -1.8156177,-14.0645 4.0721841,-17.8565 6.6052234,-4.2541 15.5532504,-1.936 19.7084964,4.5983 4.61311,7.2543 2.05654,17.0423 -5.124428,21.5604"
       transform="matrix(0.75025559,0,0,0.63533872,4.0278427,374.40833)" />
    <rect
       style="fill:#000000"
       id="rect4195"
       width="30.178308"
       height="1.2626905"
       x="1.5152309"
       y="1051.226" />
    <rect
       style="fill:#000000"
       id="rect4197"
       width="1.2626907"
       height="30.05204"
       x="0.12626873"
       y="1020.9214" />
    <rect
       style="fill:#000000"
       id="rect4199"
       width="1.0101526"
       height="29.92577"
       x="31.946074"
       y="1021.0476" />
    <rect
       style="opacity:1;fill:#000000"
       id="rect4203"
       width="29.673231"
       height="1.2626908"
       x="1.767767"
       y="1019.5324" />
    <path
       style="opacity:0;fill:#000000;fill-opacity:1"
       d="M 10.037494,27.32279 C 8.3789579,26.710623 8.2473729,24.950292 9.8037734,24.196104 c 0.8723176,-0.422701 2.5107856,-0.410177 3.2992166,0.02522 1.441115,0.795825 1.470348,2.214669 0.06086,2.954069 -0.632172,0.331631 -2.401252,0.415038 -3.12636,0.1474 z"
       id="path4605"
       inkscape:connector-curvature="0"
       transform="translate(0,1019.4096)" />
    <path
       style="opacity:0;fill:#000000;fill-opacity:1"
       d="M 10.037494,27.32279 C 8.3789579,26.710623 8.2473729,24.950292 9.8037734,24.196104 c 0.8723176,-0.422701 2.5107856,-0.410177 3.2992166,0.02522 1.441115,0.795825 1.470348,2.214669 0.06086,2.954069 -0.632172,0.331631 -2.401252,0.415038 -3.12636,0.1474 z"
       id="path4607"
       inkscape:connector-curvature="0"
       transform="translate(0,1019.4096)" />
    <path
       style="opacity:0;fill:#000000;fill-opacity:1"
       d="M 10.037494,27.32279 C 8.3789579,26.710623 8.2473729,24.950292 9.8037734,24.196104 c 0.8723176,-0.422701 2.5107856,-0.410177 3.2992166,0.02522 1.441115,0.795825 1.470348,2.214669 0.06086,2.954069 -0.632172,0.331631 -2.401252,0.415038 -3.12636,0.1474 z"
       id="path4609"
       inkscape:connector-curvature="0"
       transform="translate(0,1019.4096)" />
    <path
       style="opacity:0;fill:#000000;fill-opacity:1"
       d="m 20.11581,27.353358 c -1.388677,-0.507341 -1.858461,-1.806728 -0.975518,-2.69821 0.715655,-0.722578 2.219648,-1.005722 3.446961,-0.648933 1.840225,0.534968 2.152693,2.329394 0.551857,3.169175 -0.577588,0.302997 -2.389183,0.409637 -3.0233,0.177968 z"
       id="path4611"
       inkscape:connector-curvature="0"
       transform="translate(0,1019.4096)" />
    <rect
       style="opacity:1;fill:#000000;fill-opacity:1"
       id="rect4631"
       width="29.546961"
       height="0.883883"
       x="1.8940358"
       y="1041.5032" />
    <rect
       style="opacity:1;fill:#000000;fill-opacity:1"
       id="rect4631-0"
       width="29.546965"
       height="0.88388312"
       x="1.7677675"
       y="1043.0815" />
    <rect
       style="opacity:1;fill:#000000;fill-opacity:1"
       id="rect4631-5"
       width="29.546965"
       height="0.88388312"
       x="1.7677671"
       y="1044.723" />
    <rect
       style="opacity:1;fill:#000000;fill-opacity:1"
       id="rect4631-7"
       width="29.546965"
       height="0.88388312"
       x="1.7677668"
       y="1046.3645" />
    <rect
       style="opacity:1;fill:#000000;fill-opacity:1"
       id="rect4631-3"
       width="29.546965"
       height="0.88388312"
       x="1.767767"
       y="1048.2585" />
    <rect
       style="opacity:1;fill:#000000;fill-opacity:1"
       id="rect4631-4"
       width="29.546965"
       height="0.88388312"
       x="1.767768"
       y="1049.7739" />
  </g>
</svg>
